<?xml version="1.0" encoding="UTF-8"?>
<svg xmlns="http://www.w3.org/2000/svg" version="1.1" width="1080" height="1080" style="background: transparent;">

<path d="M0 0 C2.2731171 0.0031497 4.54491473 -0.02034462 6.81787109 -0.0456543 C34.6025031 -0.16771417 58.75433058 10.64086291 79.04052734 29.31567383 C80.01699219 30.15291992 80.01699219 30.15291992 81.01318359 31.00708008 C97.34894335 45.79808714 106.44423721 68.91819337 109.04052734 90.31567383 C109.30986868 95.76728102 109.30148199 101.20960433 109.2800293 106.66577148 C109.28114464 108.27691232 109.28320629 109.88805272 109.28613281 111.49919128 C109.29082389 114.94485379 109.28976786 118.39044795 109.28435707 121.83610916 C109.27669569 127.29226776 109.28745933 132.74829704 109.30155945 138.20443726 C109.3391566 153.7112484 109.35748113 169.21799873 109.34594727 184.72485352 C109.33972125 193.30745509 109.35135391 201.88984561 109.38239259 210.4723953 C109.40098155 215.88897774 109.39779273 221.30495916 109.37822497 226.72153115 C109.37131654 230.09710833 109.3853513 233.47236332 109.40517426 236.84787941 C109.41019702 238.40464097 109.40680037 239.96145775 109.39404106 241.51817513 C109.32455088 250.65002171 110.21507671 257.41413964 115.04052734 265.31567383 C115.37052734 266.30567383 115.70052734 267.29567383 116.04052734 268.31567383 C117.85241099 269.40458136 117.85241099 269.40458136 120.04052734 270.31567383 C120.77529297 270.74106445 121.51005859 271.16645508 122.26708984 271.60473633 C129.42768346 275.5932103 134.9244389 276.62784931 142.90380859 274.58129883 C150.84659259 271.95878287 155.96364761 268.77110799 159.85302734 261.19067383 C162.22814681 256.13297606 163.16597943 252.34367484 163.17182922 246.7293396 C163.17394494 246.0568177 163.17606065 245.3842958 163.17824048 244.69139445 C163.18424282 242.43251167 163.18324011 240.17368472 163.18237305 237.91479492 C163.18540471 236.29663498 163.18892619 234.67847589 163.19290161 233.06031799 C163.20079567 229.57033569 163.20593768 226.08036364 163.20919228 222.59037399 C163.21511 217.05742024 163.23166166 211.52453058 163.25053406 205.99160767 C163.25687203 204.09506039 163.26319765 202.19851307 163.26951122 200.30196571 C163.27267703 199.3518962 163.27584285 198.40182669 163.27910459 197.4229672 C163.32110188 184.54313894 163.35410147 171.66333935 163.36645508 158.78344727 C163.37487304 150.09610953 163.39750733 141.40892956 163.43581074 132.72167075 C163.45545886 128.13075303 163.46801403 123.54007053 163.46297646 118.94910812 C163.45828126 114.61678305 163.47239686 110.28490121 163.49998856 105.95266533 C163.50682144 104.37628701 163.50711393 102.79986205 163.49978828 101.22348595 C163.38254399 73.11923693 174.31122263 48.28905241 194.04052734 28.31567383 C214.24956938 9.38349479 239.4169033 -0.06083732 266.89013672 -0.05493164 C269.14157288 -0.05927991 271.39100145 -0.09564947 273.64208984 -0.13354492 C301.19013161 -0.34692803 327.42807392 11.07390252 347.04052734 30.31567383 C366.29544178 50.80797305 375.09726254 75.16302762 375.24584961 103.14770508 C375.25574921 104.30954819 375.2656488 105.4713913 375.27584839 106.66844177 C375.30730125 110.48833211 375.33215647 114.30823485 375.35693359 118.12817383 C375.37751714 120.7847535 375.39846804 123.44132774 375.41990662 126.09790039 C375.46966112 132.36269444 375.51466331 138.62751311 375.55792898 144.89235497 C375.6074495 152.02907217 375.6623123 159.16574524 375.71760857 166.30241966 C375.83116363 180.97346255 375.93805948 195.64454937 376.04052734 210.31567383 C376.72175156 210.64964676 377.40297577 210.98361969 378.10484314 211.32771301 C379.00135086 211.77080307 379.89785858 212.21389313 380.8215332 212.67041016 C381.70900742 213.10750809 382.59648163 213.54460602 383.510849 213.99494934 C402.78220801 224.05636912 416.28859353 243.91136713 423.33349609 264.00317383 C430.90543953 289.37055111 428.24183532 315.63170724 416.0715332 339.05053711 C413.21022364 344.27447666 409.96821794 348.85698643 406.04052734 353.31567383 C405.39857422 354.11102539 404.75662109 354.90637695 404.09521484 355.72583008 C391.56846662 370.67934687 371.70948478 382.02252934 352.16552734 384.14135742 C327.76225291 386.14318853 305.79170903 380.53026712 286.76318359 364.67114258 C285.86470703 363.89383789 284.96623047 363.1165332 284.04052734 362.31567383 C283.37923828 361.75493164 282.71794922 361.19418945 282.03662109 360.61645508 C266.56834967 346.36841853 255.94658013 323.64458873 254.91601562 302.796875 C254.03045909 272.4266862 261.29785237 248.89887452 281.87646484 226.22973633 C283.72427718 224.34499134 285.42970218 223.08129006 287.70963383 221.70818233 C293.53988868 218.21213637 293.53988868 218.21213637 297.05424309 212.63380623 C297.42172759 209.43240143 297.44874492 206.38869145 297.3527832 203.16748047 C297.36081467 201.97132614 297.36884613 200.77517181 297.37712097 199.54277039 C297.38762997 196.28045692 297.34935141 193.02330457 297.28758693 189.76169896 C297.23337923 186.33606188 297.23897273 182.91047408 297.23695374 179.48448181 C297.2249647 173.731599 297.17154563 167.98032626 297.09008789 162.22802734 C296.99639164 155.59653281 296.9541426 148.96638063 296.94275755 142.33426386 C296.93056314 135.24830525 296.88779332 128.16280692 296.83228993 121.07706523 C296.81793278 119.04705233 296.80840667 117.01706075 296.79966545 114.98701668 C296.77678309 111.18853133 296.72706362 107.39135554 296.66918945 103.59326172 C296.66628906 102.47869598 296.66338867 101.36413025 296.66040039 100.21578979 C296.47411951 91.12467803 294.14714973 83.64033884 287.85302734 76.88989258 C281.54621818 71.41221134 275.1310777 69.54292183 266.85302734 69.97583008 C258.04266373 71.04041568 251.7287337 75.47568146 246.04052734 82.31567383 C242.2358153 89.86345691 242.61250549 97.52626003 242.63989258 105.78100586 C242.63414327 107.34566267 242.62705772 108.91031504 242.6187439 110.47496033 C242.60367636 113.83339674 242.59785265 117.19167466 242.59927177 120.5501442 C242.60131427 125.87270087 242.58167707 131.19504648 242.55909729 136.51754761 C242.51817864 146.86551665 242.49954303 157.21346889 242.48292542 167.56150055 C242.4605556 180.710874 242.4267688 193.86019801 242.37572628 207.0094918 C242.35593795 212.28762932 242.34623352 217.56565624 242.34477413 222.84382939 C242.34199948 226.14520829 242.33111629 229.4465274 242.31826401 232.74788094 C242.314029 234.26425553 242.31309359 235.78064403 242.31593895 237.29702187 C242.3363901 249.62201798 241.50536091 261.83302373 237.91552734 273.69067383 C237.70379883 274.39345459 237.49207031 275.09623535 237.27392578 275.8203125 C230.36953256 297.56526682 215.73989452 317.52197374 196.04052734 329.31567383 C195.41919922 329.69965332 194.79787109 330.08363281 194.15771484 330.47924805 C175.58046308 341.78997647 156.39476563 345.84345758 134.85302734 345.87817383 C134.16609802 345.88125549 133.4791687 345.88433716 132.77142334 345.88751221 C108.45849068 345.87512215 84.91054065 337.69341407 66.04052734 322.31567383 C65.20134766 321.64020508 64.36216797 320.96473633 63.49755859 320.26879883 C56.577359 314.38931142 51.26384073 307.6828167 46.04052734 300.31567383 C45.47462891 299.52805664 44.90873047 298.74043945 44.32568359 297.92895508 C40.92641864 292.76243301 38.59535802 287.17976945 36.35302734 281.44067383 C35.92437378 280.39145752 35.92437378 280.39145752 35.48706055 279.32104492 C28.20418573 259.67670108 29.59222184 237.77597211 29.60027957 217.17672968 C29.59831614 212.76465696 29.57789961 208.35267079 29.55909729 203.94064331 C29.51845405 193.72204554 29.49957633 183.50346551 29.48292542 173.2848053 C29.460438 160.22718386 29.42700474 147.16961165 29.37572628 134.11207092 C29.35586114 128.87518828 29.34622876 123.63841788 29.34477413 118.40149903 C29.342022 115.15186433 29.33119038 111.90229187 29.31826401 108.65268326 C29.31399049 107.1490639 29.31312017 105.64543035 29.31593895 104.14180756 C29.31934971 102.08667412 29.31053558 100.03193205 29.29881287 97.97683716 C29.29636141 96.25425532 29.29636141 96.25425532 29.29386044 94.49687386 C28.73374721 87.46331894 25.79278874 82.35868539 21.04052734 77.31567383 C13.14581339 71.07804147 7.04297201 69.64034954 -2.95947266 70.31567383 C-9.55413682 71.54442322 -14.5447115 75.38210482 -18.95947266 80.31567383 C-22.29143037 85.46244425 -24.07641765 90.53725647 -24.09813786 96.68097305 C-24.1036123 97.55281935 -24.10908674 98.42466565 -24.11472708 99.32293153 C-24.11570519 100.27623534 -24.11668329 101.22953915 -24.11769104 102.21173096 C-24.12262902 103.22786964 -24.12756699 104.24400833 -24.13265461 105.29093909 C-24.14804835 108.70575785 -24.15639535 112.12055779 -24.16479492 115.53540039 C-24.17437197 117.97931077 -24.18438194 120.42321949 -24.1947937 122.86712646 C-24.21625457 128.13380637 -24.23469521 133.40048366 -24.25039864 138.66718292 C-24.27310837 146.28195029 -24.30124967 153.89668995 -24.33071791 161.51143381 C-24.37838029 173.8657646 -24.42164815 186.22010673 -24.4621582 198.57446289 C-24.50152002 210.57577394 -24.54294789 222.57707493 -24.5871582 234.57836914 C-24.58988248 235.31809315 -24.59260675 236.05781716 -24.59541357 236.81995705 C-24.60909316 240.53092431 -24.62281342 244.24189141 -24.63655388 247.95285845 C-24.75049739 278.74044374 -24.85650291 309.52804932 -24.95947266 340.31567383 C-50.69947266 340.31567383 -76.43947266 340.31567383 -102.95947266 340.31567383 C-103.06995132 308.44240852 -103.16217467 276.56933088 -103.2147993 244.69593136 C-103.22105193 240.92261276 -103.22752363 237.14929456 -103.23413086 233.37597656 C-103.23544241 232.62485954 -103.23675396 231.87374253 -103.23810526 231.09986439 C-103.25978992 218.97955071 -103.29917259 206.85935707 -103.34523664 194.73911432 C-103.39219552 182.27837367 -103.41980882 169.81769537 -103.42991513 157.35686988 C-103.43673432 149.68402291 -103.4581744 142.01151541 -103.49905499 134.33877309 C-103.52891352 128.42931825 -103.53169834 122.52003229 -103.52501106 116.61050034 C-103.52637382 114.20530182 -103.53614619 111.80008907 -103.55550003 109.39496803 C-103.7619021 82.39478419 -98.64799197 58.35313827 -80.95947266 37.31567383 C-80.26208984 36.45586914 -79.56470703 35.59606445 -78.84619141 34.71020508 C-59.13436493 11.46682651 -29.94936047 -0.0864478 0 0 Z " fill="#222222" transform="translate(403.95947265625,295.684326171875)"/>
<path d="M0 0 C17.31727566 13.04685904 29.90413043 34.67068961 33.33276367 56.07763672 C36.50236631 81.92386057 32.5365924 107.65016426 16.5625 128.875 C15.38883079 130.26182437 14.2009292 131.63671342 13 133 C12.35804688 133.79535156 11.71609375 134.59070313 11.0546875 135.41015625 C-1.47206072 150.36367304 -21.33104257 161.70685552 -40.875 163.82568359 C-65.27827444 165.8275147 -87.24881831 160.21459329 -106.27734375 144.35546875 C-107.17582031 143.57816406 -108.07429687 142.80085937 -109 142 C-109.66128906 141.43925781 -110.32257812 140.87851562 -111.00390625 140.30078125 C-126.47217767 126.0527447 -137.09394721 103.3289149 -138.12451172 82.48120117 C-138.97324491 53.37386999 -132.57567237 28.92451666 -112.3659668 7.19970703 C-104.09846325 -1.23733519 -93.81956475 -7.38969285 -83 -12 C-81.89140625 -12.48726563 -80.7828125 -12.97453125 -79.640625 -13.4765625 C-52.86185072 -23.58922199 -22.61616279 -16.19900004 0 0 Z " fill="#0B0B0B" transform="translate(797,516)"/>
<path d="M0 0 C1.18734741 0.01353516 1.18734741 0.01353516 2.39868164 0.02734375 C13.56100785 0.35729858 21.82568075 5.05466999 30.125 12.4375 C32.88887975 15.56989705 35.06924694 18.80641443 37.125 22.4375 C37.558125 23.17226563 37.99125 23.90703125 38.4375 24.6640625 C42.76461402 33.40843875 42.93751573 45.18435759 40.01953125 54.4296875 C34.83952634 67.34498124 27.18618093 74.18332774 15.015625 80.5390625 C7.05096468 83.84223558 -5.2079951 84.09118739 -13.3125 81.3125 C-14.52075994 80.72864285 -15.70802808 80.1000389 -16.875 79.4375 C-18.06802734 78.83421875 -18.06802734 78.83421875 -19.28515625 78.21875 C-28.98841604 72.95001165 -36.38151711 64.79100771 -39.94921875 54.26953125 C-42.72290844 42.78856253 -41.9990421 30.66913132 -35.875 20.4375 C-27.81812271 7.80533719 -15.07897105 -0.20671611 0 0 Z " fill="#FDFDFD" transform="translate(744.875,547.5625)"/>
</svg>